<?xml version="1.0" standalone="no"?>
<!DOCTYPE svg PUBLIC "-//W3C//DTD SVG 20010904//EN"
 "http://www.w3.org/TR/2001/REC-SVG-20010904/DTD/svg10.dtd">
<svg version="1.0" xmlns="http://www.w3.org/2000/svg"
 width="1024.000000pt" height="1024.000000pt" viewBox="0 0 1024.000000 1024.000000"
 preserveAspectRatio="xMidYMid meet">
<metadata>
Created by potrace 1.14, written by Peter Selinger 2001-2017
</metadata>
<g transform="translate(0.000000,1024.000000) scale(0.100000,-0.100000)"
fill="#000000" stroke="none">
<path d="M5169 7655 c0 -12 -3 -15 -6 -7 -4 10 -9 9 -20 -5 -8 -10 -12 -13 -9
-6 4 7 -5 11 -26 9 -18 -1 -39 2 -45 7 -9 6 -13 5 -13 -2 0 -7 -5 -9 -11 -5
-6 3 -15 0 -20 -7 -6 -10 -9 -11 -9 -1 0 6 -5 12 -11 12 -5 0 -7 -6 -3 -12 5
-8 0 -7 -11 2 -10 8 -16 10 -12 4 11 -18 -21 -25 -37 -9 -19 19 -27 19 -20 0
5 -11 2 -13 -11 -8 -25 9 -83 8 -93 -2 -4 -4 -1 -5 7 0 10 6 12 4 7 -4 -6 -9
-11 -9 -22 0 -7 6 -11 16 -7 22 3 6 1 7 -6 3 -6 -4 -8 -13 -4 -19 4 -7 -2 -5
-12 3 -11 9 -16 10 -11 3 4 -7 4 -13 -1 -14 -4 0 -18 -2 -30 -3 -13 -2 -23 1
-23 6 0 4 -7 8 -16 8 -8 0 -12 -5 -8 -11 4 -8 1 -8 -12 -1 -21 11 -47 5 -39
-9 4 -5 -1 -6 -9 -3 -9 3 -16 11 -16 18 0 8 -2 8 -8 0 -9 -14 -43 -14 -61 0
-11 8 -13 8 -7 -1 6 -12 0 -15 -20 -12 -4 0 -11 -5 -15 -13 -7 -10 -9 -8 -10
7 0 11 -3 14 -6 7 -4 -10 -8 -10 -19 -1 -12 10 -18 8 -30 -7 -9 -10 -13 -13
-9 -6 3 6 1 12 -4 12 -6 0 -11 -5 -11 -11 0 -5 -4 -7 -10 -4 -5 3 -10 1 -10
-5 0 -6 -5 -8 -10 -5 -15 9 -51 -5 -44 -17 4 -6 0 -6 -13 1 -11 6 -23 7 -27 4
-3 -3 -6 -1 -6 6 0 9 -4 9 -14 -1 -8 -7 -11 -17 -8 -22 3 -5 0 -6 -7 -2 -6 4
-9 12 -6 17 4 5 1 9 -4 9 -6 0 -11 -5 -11 -11 0 -8 -5 -8 -15 1 -12 10 -15 10
-15 0 0 -8 -3 -10 -7 -7 -3 4 -13 1 -21 -6 -13 -9 -14 -9 -8 0 5 9 2 11 -8 7
-9 -3 -16 -11 -16 -17 0 -5 -10 -2 -22 9 -19 15 -20 16 -9 2 15 -21 9 -23 -21
-7 -15 8 -19 8 -14 0 5 -7 -1 -11 -14 -11 -13 0 -19 4 -14 12 4 7 3 8 -5 4 -6
-4 -9 -11 -6 -16 2 -4 -9 -7 -25 -6 -17 0 -30 5 -30 11 -1 5 -7 -3 -15 -20 -7
-16 -14 -26 -14 -21 -1 5 -9 2 -18 -5 -15 -12 -16 -12 -8 1 8 13 7 13 -8 1
-14 -11 -17 -11 -17 0 0 11 -2 11 -10 -1 -6 -10 -10 -11 -10 -2 0 6 -5 12 -11
12 -5 0 -7 -5 -3 -12 5 -8 2 -9 -9 -5 -10 3 -17 3 -17 -2 0 -10 -43 -6 -61 5
-8 4 -9 3 -5 -4 4 -7 2 -12 -4 -12 -6 0 -8 -5 -5 -10 4 -6 3 -10 -2 -9 -4 1
-10 0 -13 -1 -20 -7 -46 -7 -56 1 -7 6 -17 2 -29 -11 -13 -15 -21 -17 -31 -9
-9 8 -15 5 -24 -10 -6 -12 -16 -21 -23 -21 -7 0 -6 4 3 10 11 7 12 10 2 10 -8
0 -16 -9 -19 -21 -4 -16 -8 -17 -14 -7 -7 10 -9 10 -9 1 0 -7 -9 -13 -19 -13
-11 0 -23 -5 -26 -10 -5 -8 -11 -7 -20 0 -11 9 -18 7 -32 -9 -9 -12 -22 -21
-28 -21 -5 0 -3 5 5 10 11 7 11 10 2 10 -7 0 -17 -10 -22 -22 -5 -13 -9 -17
-9 -10 -1 10 -5 9 -17 -3 -13 -13 -19 -13 -32 -3 -9 8 -13 8 -9 2 9 -15 -13
-31 -40 -28 -12 0 -20 -3 -17 -7 3 -5 -4 -9 -15 -9 -12 0 -21 -6 -21 -12 0 -9
-4 -8 -10 2 -8 13 -10 13 -10 -2 0 -9 -5 -20 -12 -24 -7 -4 -8 -3 -4 4 4 7 2
12 -3 12 -6 0 -11 -5 -11 -11 0 -5 -5 -7 -12 -3 -7 5 -9 2 -6 -8 6 -15 -17
-18 -39 -5 -6 4 -10 0 -9 -10 1 -20 -30 -24 -53 -8 -11 7 -13 7 -8 -1 8 -15
-18 -38 -33 -29 -6 4 -9 1 -8 -7 2 -8 -6 -13 -19 -12 -16 1 -20 -3 -16 -15 4
-9 3 -13 -2 -9 -4 4 -15 2 -23 -5 -9 -6 -13 -7 -10 -2 4 6 -2 11 -12 11 -10 0
-17 -3 -14 -7 5 -9 -27 -23 -45 -20 -7 1 -10 -2 -6 -8 3 -6 -1 -11 -10 -11
-11 0 -15 -5 -12 -14 4 -11 -1 -13 -19 -10 -17 3 -24 0 -24 -11 0 -8 -3 -15
-7 -14 -18 3 -52 -14 -47 -22 5 -8 -9 -13 -28 -10 -5 0 -8 -3 -8 -9 0 -6 -6
-9 -12 -8 -7 2 -12 -3 -10 -10 1 -6 -4 -11 -10 -10 -7 2 -12 -5 -12 -15 2 -13
-1 -15 -11 -7 -9 8 -14 6 -19 -6 -4 -10 -12 -14 -22 -10 -11 4 -15 2 -11 -8 4
-10 1 -13 -9 -9 -10 4 -12 0 -7 -13 4 -12 3 -15 -5 -10 -7 4 -15 1 -18 -8 -3
-9 -10 -13 -15 -10 -5 3 -9 0 -9 -5 0 -6 -7 -11 -16 -11 -8 0 -13 -3 -11 -7 3
-5 -1 -13 -8 -20 -11 -10 -15 -10 -18 0 -3 7 -6 3 -6 -7 -1 -11 -4 -16 -7 -13
-4 4 -15 -3 -25 -14 -9 -11 -21 -21 -26 -22 -4 -1 -7 -5 -5 -9 1 -5 -3 -8 -9
-8 -5 0 -7 -5 -3 -12 4 -7 3 -8 -4 -4 -6 3 -16 -3 -22 -14 -6 -12 -16 -18 -23
-13 -7 4 -5 -2 3 -12 14 -17 14 -18 -6 -7 -18 10 -21 9 -20 -6 0 -9 -5 -16
-12 -14 -10 2 -12 -4 -7 -20 4 -13 4 -20 0 -16 -11 11 -33 -15 -27 -32 3 -9
-2 -7 -12 5 -14 16 -17 17 -12 3 4 -12 1 -15 -11 -11 -10 4 -14 2 -10 -4 4 -6
0 -16 -8 -23 -8 -7 -15 -17 -15 -22 0 -13 -26 -38 -33 -32 -3 3 -3 -5 0 -18 3
-16 2 -19 -5 -10 -7 11 -11 8 -16 -12 -4 -18 -11 -24 -19 -19 -7 4 -6 0 2 -11
8 -9 10 -16 5 -15 -21 4 -34 -2 -32 -13 2 -7 -3 -12 -10 -10 -6 1 -11 -1 -11
-5 3 -21 -2 -33 -13 -27 -7 5 -9 0 -6 -14 5 -16 2 -20 -14 -17 -16 3 -17 1 -8
-10 9 -10 7 -15 -10 -20 -11 -3 -18 -10 -15 -15 3 -4 2 -16 -1 -25 -5 -12 -9
-13 -14 -5 -5 8 -10 2 -14 -14 -4 -15 -11 -24 -15 -21 -5 3 -7 -5 -4 -17 4
-19 3 -20 -6 -8 -9 13 -11 13 -11 -2 0 -10 -4 -18 -10 -18 -5 0 -7 -6 -4 -14
3 -7 -2 -16 -11 -20 -10 -3 -15 -15 -13 -28 2 -17 -2 -23 -14 -22 -10 1 -15
-2 -13 -7 3 -4 -1 -11 -8 -16 -7 -4 -17 -16 -20 -26 -4 -10 -11 -16 -16 -13
-5 3 -8 -2 -7 -12 0 -9 -5 -16 -11 -15 -7 2 -12 0 -11 -5 1 -4 -5 -20 -12 -37
-7 -16 -14 -34 -14 -38 -1 -4 -6 -11 -11 -15 -5 -4 -10 -14 -10 -22 0 -8 -7
-14 -16 -14 -11 1 -15 -6 -13 -22 1 -13 -2 -22 -7 -18 -5 3 -9 0 -9 -6 0 -6
-4 -9 -9 -6 -5 3 -9 0 -8 -7 0 -6 -1 -21 -2 -32 -1 -17 -3 -18 -12 -5 -8 12
-9 10 -4 -8 4 -14 1 -30 -7 -40 -24 -31 -41 -65 -27 -57 8 6 10 4 5 -4 -5 -7
-15 -10 -25 -6 -13 5 -14 4 -4 -6 18 -18 16 -25 -9 -50 -20 -19 -21 -21 -4
-15 19 7 19 6 3 -12 -10 -11 -15 -26 -11 -36 4 -11 1 -16 -12 -16 -17 0 -16
-1 2 -16 10 -8 13 -13 7 -9 -8 4 -13 0 -13 -9 0 -8 -5 -18 -12 -22 -7 -5 -8
-3 -3 6 6 9 4 11 -4 5 -9 -5 -10 -10 -2 -18 7 -7 3 -17 -13 -32 -12 -11 -20
-27 -18 -34 3 -10 0 -11 -9 -5 -11 6 -11 4 0 -10 13 -15 13 -19 0 -27 -12 -7
-12 -9 1 -9 12 -1 12 -3 -3 -14 -15 -11 -15 -15 -3 -25 15 -12 10 -51 -6 -51
-5 0 -6 5 -2 12 4 7 3 8 -5 4 -6 -4 -9 -11 -6 -16 3 -5 1 -11 -5 -15 -7 -4 -7
-12 0 -26 8 -13 7 -19 0 -19 -7 0 -7 -7 1 -21 9 -17 8 -20 -2 -14 -9 6 -10 3
-6 -10 4 -9 2 -25 -5 -33 -10 -12 -10 -14 -1 -8 9 5 11 2 7 -8 -3 -9 -11 -13
-17 -9 -6 4 -7 1 -2 -7 4 -7 2 -16 -6 -21 -12 -7 -12 -9 0 -9 11 0 10 -4 -4
-13 -12 -10 -15 -16 -6 -21 8 -5 7 -11 -4 -22 -17 -17 -21 -39 -5 -29 6 3 7
-1 4 -9 -3 -9 -11 -16 -16 -16 -6 0 -6 -6 1 -14 9 -11 9 -16 0 -22 -8 -5 -9
-3 -4 6 5 9 4 11 -4 6 -9 -6 -9 -11 -1 -21 12 -14 -11 -40 -25 -27 -5 4 -5 1
-1 -6 4 -7 11 -10 15 -8 4 3 8 -1 8 -9 0 -8 -4 -12 -9 -9 -8 5 -9 4 -13 -35
-1 -13 -9 -27 -16 -32 -12 -7 -12 -9 0 -9 11 0 11 -3 0 -17 -8 -9 -9 -14 -3
-10 7 4 14 0 18 -8 3 -8 0 -15 -7 -15 -8 0 -6 -4 3 -10 12 -8 12 -10 -5 -10
-13 0 -16 -3 -8 -8 14 -9 15 -82 1 -82 -5 0 -6 -6 -2 -12 5 -8 0 -7 -11 2 -17
13 -18 13 -13 -1 5 -14 0 -15 -34 -12 -32 4 -39 2 -32 -8 6 -12 5 -12 -8 -1
-11 9 -18 10 -23 2 -3 -5 -12 -10 -18 -10 -7 0 -6 4 3 10 12 8 10 10 -8 10
-16 0 -21 -4 -16 -12 6 -10 4 -10 -8 0 -12 9 -18 10 -23 2 -4 -7 -18 -9 -32
-5 -19 4 -23 3 -17 -7 6 -10 3 -9 -9 1 -13 11 -17 11 -17 1 0 -8 -3 -10 -7 -7
-3 4 -12 -1 -20 -11 -8 -9 -11 -11 -7 -3 4 9 2 12 -7 9 -8 -3 -13 -10 -12 -15
1 -6 -11 -9 -27 -8 -22 2 -27 -1 -22 -13 4 -11 1 -14 -12 -9 -9 4 -15 3 -11
-2 8 -14 -17 -19 -44 -9 -22 8 -23 7 -10 -9 8 -9 9 -14 3 -10 -11 6 -77 -45
-74 -58 1 -4 -1 -9 -4 -13 -3 -3 -6 0 -6 7 0 7 -5 9 -11 6 -6 -4 -8 -9 -5 -13
3 -3 -2 -11 -12 -18 -15 -12 -15 -15 -2 -24 13 -8 12 -10 -4 -10 -15 0 -16 -3
-7 -14 9 -11 8 -15 -5 -20 -9 -3 -14 -13 -10 -21 3 -8 2 -14 -2 -14 -18 3 -35
-2 -29 -8 4 -3 1 -13 -6 -21 -8 -11 -8 -14 0 -9 6 4 15 2 19 -4 4 -7 3 -9 -2
-6 -6 3 -16 2 -24 -4 -8 -5 -10 -9 -5 -9 6 0 11 -10 12 -21 2 -19 1 -20 -11
-4 -11 15 -12 14 -12 -9 0 -14 3 -26 7 -26 4 0 10 -7 13 -16 5 -13 4 -14 -7
-6 -11 9 -13 4 -13 -27 1 -22 5 -43 10 -48 5 -5 6 -3 2 4 -5 9 -2 11 10 6 15
-5 15 -7 -2 -17 -13 -7 -19 -24 -20 -48 -1 -21 2 -35 7 -32 5 3 9 -2 9 -11 0
-9 5 -13 10 -10 6 3 10 -1 10 -9 0 -9 5 -16 11 -16 6 0 8 -7 5 -16 -4 -10 -2
-13 6 -8 8 5 9 2 5 -10 -4 -9 -3 -15 2 -12 5 3 15 -2 22 -11 10 -11 10 -14 2
-9 -9 5 -11 2 -7 -8 3 -9 11 -13 16 -10 6 4 7 -2 3 -16 -4 -12 -3 -20 1 -17 5
3 15 -1 22 -9 7 -8 10 -14 6 -14 -4 0 0 -8 9 -18 10 -10 14 -22 10 -26 -4 -4
0 -4 10 0 12 4 17 1 17 -11 0 -9 4 -14 9 -10 5 3 13 0 17 -6 4 -8 3 -9 -4 -5
-8 5 -12 0 -12 -13 0 -11 -4 -23 -10 -26 -6 -3 -7 1 -4 12 3 11 0 9 -8 -5 -8
-12 -18 -19 -22 -15 -4 4 -6 1 -4 -7 2 -9 -4 -14 -14 -14 -10 1 -17 -1 -16 -5
3 -16 -15 -60 -23 -55 -5 3 -9 -3 -9 -12 0 -10 -8 -26 -18 -37 -9 -11 -11 -17
-4 -13 18 11 15 -2 -8 -27 -18 -18 -19 -23 -7 -32 12 -8 12 -13 2 -22 -8 -7
-12 -24 -10 -38 2 -19 -1 -23 -8 -16 -6 6 -16 11 -22 11 -5 0 -3 -5 5 -10 13
-9 13 -11 0 -20 -14 -9 -7 -14 13 -11 5 1 6 -3 2 -9 -3 -6 -11 -7 -17 -4 -8 5
-9 1 -5 -10 4 -10 7 -20 7 -22 0 -3 6 -2 13 2 9 6 9 5 0 -8 -13 -15 -8 -28 11
-28 6 0 4 5 -4 10 -8 5 -10 10 -4 10 6 0 13 -3 17 -6 8 -8 -3 -35 -12 -29 -4
2 -8 -2 -8 -10 0 -8 6 -15 14 -15 9 0 12 -8 9 -25 -3 -13 0 -28 6 -31 7 -5 8
-2 3 6 -5 8 -4 11 3 6 6 -4 9 -13 5 -21 -7 -19 16 -75 31 -75 7 0 8 -3 1 -8
-18 -12 -12 -27 30 -77 22 -26 39 -52 37 -57 -2 -6 4 -8 14 -4 11 4 15 2 11
-8 -4 -9 2 -17 14 -21 11 -4 16 -11 12 -18 -5 -9 -3 -9 8 0 10 8 19 9 29 1 12
-8 11 -9 -5 -4 -20 6 -20 6 -1 -9 11 -8 24 -15 29 -15 4 0 5 -5 1 -12 -5 -7
-3 -8 7 -2 8 4 26 9 40 9 19 1 25 -3 21 -14 -3 -9 -1 -12 6 -7 6 3 14 -3 17
-15 5 -15 10 -18 15 -9 5 8 9 7 14 -6 6 -16 8 -16 16 -4 8 13 10 13 10 -1 0
-9 7 -16 15 -16 8 0 12 3 10 7 -2 4 9 7 25 7 18 0 27 -4 23 -11 -4 -6 1 -5 10
3 14 11 17 11 17 0 0 -11 2 -11 10 1 8 12 10 12 11 -5 0 -11 3 -14 6 -7 2 6 9
12 14 12 6 0 7 -6 2 -12 -4 -7 6 -5 21 6 16 10 25 13 22 7 -10 -15 7 -14 22 1
8 8 12 9 12 1 0 -15 30 -10 41 8 5 8 9 10 9 5 0 -5 11 1 25 14 14 13 25 18 25
12 0 -7 -4 -12 -10 -12 -5 0 -10 -6 -10 -12 1 -7 10 -2 21 12 12 14 23 23 26
21 9 -8 73 23 73 36 0 7 3 13 8 14 4 0 15 2 25 4 9 2 15 -1 11 -6 -3 -5 0 -9
5 -9 6 0 11 -7 11 -15 0 -8 -5 -15 -11 -15 -5 0 -7 -5 -4 -10 4 -6 11 -7 17
-4 7 5 9 1 5 -9 -3 -10 -3 -17 1 -17 7 0 11 -16 14 -57 1 -7 5 -10 10 -7 7 5
12 -12 11 -43 0 -6 6 -9 15 -5 11 4 14 1 9 -11 -4 -12 -2 -14 10 -10 11 4 14
2 9 -5 -4 -7 -2 -12 4 -12 6 0 8 -5 4 -12 -5 -8 -2 -9 9 -5 13 5 17 1 17 -14
0 -11 5 -17 10 -14 5 3 10 -1 10 -10 0 -9 4 -13 10 -10 5 3 10 1 10 -4 0 -6 8
-11 18 -11 20 -1 56 -29 65 -50 5 -13 6 -13 6 -1 1 11 5 10 17 -5 8 -10 13
-14 10 -8 -3 7 4 9 20 6 20 -4 23 -7 12 -14 -9 -7 -8 -8 6 -4 10 4 26 1 34 -6
13 -11 14 -11 7 2 -5 9 0 7 14 -4 22 -20 22 -20 16 0 -7 19 -6 19 9 0 11 -14
16 -15 16 -6 0 9 5 7 15 -6 14 -19 14 -19 15 1 0 16 2 17 10 5 5 -8 12 -11 16
-7 4 4 13 2 21 -4 10 -9 13 -8 13 1 0 9 7 7 22 -6 21 -19 21 -19 14 0 -7 19
-6 19 13 2 17 -15 23 -16 36 -6 11 9 15 9 15 1 0 -7 4 -10 10 -6 5 3 7 13 4
23 -3 9 2 6 10 -8 12 -20 15 -22 16 -7 0 10 5 15 10 12 6 -4 17 -1 25 5 12 10
18 10 30 0 13 -11 14 -10 10 1 -4 10 3 14 27 14 21 0 32 5 31 12 -2 7 4 10 12
7 8 -4 15 -1 15 5 0 6 6 8 14 5 8 -3 17 0 22 7 4 8 3 10 -4 5 -8 -5 -10 -2 -6
8 3 9 10 13 15 10 5 -3 9 0 9 5 0 6 8 11 18 11 11 0 13 3 6 8 -9 5 -8 11 2 20
8 7 14 10 14 7 0 -3 9 4 20 15 11 11 20 22 20 25 0 3 11 17 25 31 14 14 22 30
18 37 -4 7 2 5 12 -3 10 -8 16 -10 12 -4 -9 15 15 64 32 64 11 0 11 3 1 15
-11 13 -10 14 5 9 14 -6 16 -4 10 7 -5 8 3 4 17 -9 19 -17 27 -20 31 -10 3 7
4 -1 2 -19 -3 -26 0 -31 13 -26 11 5 14 2 10 -8 -8 -21 16 -41 32 -26 10 9 11
9 6 0 -5 -9 0 -13 14 -13 12 0 19 -4 16 -9 -3 -5 1 -12 10 -15 10 -4 13 -2 9
7 -4 6 1 3 9 -7 11 -14 16 -15 16 -6 0 9 5 7 15 -6 9 -12 14 -14 15 -6 0 7 5
10 10 7 6 -4 8 -11 5 -16 -4 -5 -1 -9 4 -9 6 0 11 5 11 10 0 6 6 5 14 -2 8 -7
12 -16 10 -19 -2 -3 10 -5 27 -4 16 1 32 -2 35 -7 3 -4 9 -6 14 -3 5 3 12 0
16 -6 5 -8 3 -9 -6 -4 -9 6 -11 4 -6 -4 5 -7 10 -10 13 -7 3 3 15 0 27 -6 19
-10 20 -10 7 6 -12 14 -12 16 3 10 9 -3 16 -11 16 -16 0 -6 6 -8 14 -5 7 3 19
0 26 -6 10 -9 11 -9 6 1 -4 6 -2 12 3 12 6 0 11 -6 11 -12 0 -9 4 -8 10 2 9
13 10 13 10 0 0 -10 3 -11 8 -4 4 6 15 10 24 9 9 -2 26 6 38 17 17 16 24 17
36 7 12 -10 13 -9 9 4 -5 10 -1 15 12 14 11 -1 17 4 15 12 -3 12 0 12 12 1 14
-10 16 -10 16 6 0 15 2 16 9 5 8 -12 12 -12 26 2 9 10 21 15 26 12 5 -4 6 1 3
10 -4 10 -2 15 7 13 8 -2 13 3 12 10 -2 6 2 12 8 12 5 0 8 4 4 9 -3 5 0 13 6
17 7 4 9 3 5 -4 -3 -6 -1 -14 5 -18 7 -4 9 -3 6 3 -4 6 0 19 8 29 8 10 14 24
15 29 0 6 -5 3 -10 -5 -7 -10 -10 -11 -10 -2 0 7 7 15 15 18 8 4 15 15 15 26
0 10 4 16 10 13 6 -3 7 1 4 9 -4 9 0 18 9 22 9 3 13 12 11 19 -3 7 0 16 7 21
8 5 10 3 4 -6 -5 -9 -4 -11 4 -6 7 5 9 12 3 19 -5 7 -12 22 -15 35 -4 18 -3
21 7 12 10 -8 13 -5 11 15 -2 14 1 25 7 25 6 0 5 6 -2 15 -11 13 -10 14 5 9
14 -6 16 -4 11 7 -4 8 0 5 8 -5 16 -20 16 -20 16 0 1 19 1 19 15 0 8 -11 15
-14 15 -7 0 7 5 9 10 6 8 -5 7 -12 -2 -23 -10 -14 -10 -15 2 -4 18 15 44 16
34 0 -5 -7 -3 -8 7 -3 22 14 60 15 52 2 -5 -9 -3 -9 8 -1 19 14 38 12 49 -6 8
-12 10 -12 10 -1 0 11 3 11 17 0 9 -8 14 -9 10 -2 -9 15 13 23 34 12 12 -6 26
0 49 22 20 20 39 29 51 26 10 -3 17 -1 13 4 -3 5 0 9 6 9 6 0 8 4 5 10 -3 6 1
7 9 4 9 -3 13 -11 9 -17 -3 -6 -1 -7 6 -3 6 4 9 12 6 17 -6 8 9 13 28 10 5 -1
6 2 4 6 -3 5 1 17 9 28 8 10 14 15 14 10 0 -5 7 0 16 11 8 10 13 12 9 4 -4 -8
2 -5 13 7 11 12 23 19 28 15 5 -4 2 1 -5 11 -12 15 -12 17 4 11 13 -5 16 -4
11 4 -4 7 -1 15 8 18 9 3 16 10 16 16 0 5 -5 6 -11 2 -8 -4 -8 0 0 15 7 11 16
21 21 21 5 0 7 6 4 14 -3 8 -1 17 5 21 6 3 11 15 11 25 0 10 8 23 17 28 21 12
26 42 10 61 -10 12 -9 13 2 6 11 -6 13 -4 8 8 -3 10 -2 17 4 17 6 0 7 4 4 10
-3 5 0 10 7 10 10 0 9 3 -2 10 -12 7 -11 12 5 31 11 12 15 19 9 16 -7 -4 -14
0 -17 8 -4 9 -1 12 7 9 8 -3 17 0 22 7 4 7 3 10 -3 6 -6 -4 -13 0 -17 8 -3 8
0 15 6 15 9 0 9 3 0 12 -15 15 -16 32 -1 22 8 -4 8 -1 2 12 -6 11 -9 31 -8 47
1 18 -3 27 -13 27 -8 0 -12 6 -9 13 3 7 -4 19 -14 25 -10 7 -19 19 -19 28 0 8
-4 12 -10 9 -5 -3 -10 3 -10 13 0 11 -8 26 -17 33 -16 13 -17 12 -4 -3 20 -27
6 -22 -24 8 -14 14 -30 22 -37 18 -6 -4 -8 -3 -5 2 3 6 -7 15 -23 22 -15 7
-31 20 -34 29 -6 13 -4 14 9 3 9 -7 15 -9 14 -4 -3 17 1 37 7 32 9 -10 41 26
36 39 -2 7 3 16 12 19 9 3 13 10 10 15 -3 6 0 16 6 24 6 8 9 19 5 25 -3 5 -1
10 5 10 6 0 8 5 5 10 -3 6 2 10 11 10 10 0 14 3 11 7 -4 3 -2 12 4 20 6 7 9
13 7 13 -3 0 -2 18 2 39 4 22 4 45 -1 52 -4 7 -4 20 1 29 6 11 4 25 -7 40 -9
13 -11 20 -5 16 14 -8 12 20 -2 43 -7 10 -5 12 3 6 9 -5 12 -2 9 11 -2 11 -11
18 -21 18 -14 -2 -15 1 -6 12 9 11 8 14 -4 14 -10 0 -14 6 -11 14 3 8 -4 25
-15 38 -12 12 -19 28 -17 35 3 7 -2 13 -10 13 -8 0 -12 5 -9 10 3 6 -1 10 -9
10 -9 0 -16 5 -16 10 0 6 -7 10 -15 10 -8 0 -19 9 -25 20 -6 11 -18 20 -26 20
-8 0 -12 5 -9 10 6 9 -16 15 -39 11 -5 -1 -3 5 4 14 11 13 10 14 -5 9 -13 -5
-16 -4 -11 5 4 6 4 11 -1 10 -20 -3 -34 2 -28 11 3 6 -1 7 -9 4 -9 -3 -13 -10
-10 -15 3 -5 -2 -6 -10 -3 -9 3 -13 11 -9 17 4 6 0 8 -9 4 -9 -3 -19 -3 -22 0
-9 10 -55 12 -60 4 -3 -4 -26 -5 -51 -1 -25 4 -45 3 -45 -2 0 -4 -4 -8 -10 -8
-5 0 -6 8 -3 17 6 15 5 16 -9 3 -9 -8 -13 -19 -10 -24 3 -5 0 -6 -7 -1 -8 4
-18 -1 -27 -13 -9 -14 -21 -18 -35 -15 -17 5 -20 3 -14 -7 6 -10 4 -12 -8 -7
-10 3 -17 2 -17 -4 0 -6 -4 -8 -9 -5 -5 4 -12 0 -14 -6 -4 -10 -6 -10 -6 0 -1
7 -5 10 -11 7 -6 -3 -7 1 -4 9 3 9 2 16 -3 16 -13 0 -10 35 5 52 9 11 9 17 0
26 -7 7 -8 12 -2 12 6 0 19 7 30 16 10 8 12 12 4 8 -13 -7 -13 -5 -1 9 7 9 18
14 25 10 6 -4 5 1 -3 10 -9 12 -10 17 -2 17 7 0 10 4 6 9 -3 5 0 13 6 17 7 4
9 3 5 -4 -3 -6 -1 -14 5 -18 7 -4 10 -3 7 2 -9 15 11 56 23 48 8 -4 9 -3 5 4
-8 14 17 55 27 45 4 -3 7 4 7 16 0 12 4 20 9 17 5 -3 11 4 14 15 3 12 10 18
16 14 10 -5 16 14 12 38 0 4 2 6 6 6 20 -3 34 2 28 11 -3 6 -2 10 3 10 5 0 15
11 22 25 7 14 20 25 27 25 8 0 11 4 8 10 -3 6 0 10 8 10 7 0 24 11 38 26 21
22 21 24 4 19 -11 -3 -6 1 10 11 17 9 35 22 40 29 17 19 50 41 41 28 -4 -7 -3
-13 2 -13 6 0 13 7 16 16 3 9 11 12 18 8 9 -5 8 -2 -1 9 -12 15 -12 17 3 11 9
-3 16 -1 16 5 0 6 14 17 30 26 17 9 30 23 30 33 0 13 2 14 9 4 7 -11 9 -11 14
2 4 10 12 13 23 9 14 -5 16 -3 10 12 -4 11 -4 16 0 12 4 -4 14 -1 22 6 13 10
15 9 8 -3 -4 -9 -2 -8 7 2 8 10 17 15 20 11 4 -3 7 -1 7 5 0 7 7 9 18 5 9 -3
14 -3 10 1 -10 12 15 34 31 28 10 -4 12 -1 6 9 -6 11 -5 12 5 2 16 -15 54 2
44 19 -5 7 -2 8 7 2 20 -12 40 -14 33 -3 -5 8 13 13 44 12 7 -1 11 5 8 12 -3
9 2 11 15 8 11 -3 19 0 19 7 0 10 3 10 15 0 13 -11 14 -10 9 4 -6 15 5 21 29
17 5 -1 6 3 2 9 -3 5 -1 10 5 10 6 0 8 5 4 12 -4 7 -3 8 5 4 6 -4 8 -13 5 -19
-5 -8 -3 -8 7 1 7 6 21 12 32 12 12 0 16 4 11 13 -5 7 0 6 11 -3 14 -12 19
-12 23 -2 3 10 7 10 20 0 13 -11 14 -11 7 1 -6 11 -4 13 9 8 10 -4 19 -1 22 8
5 11 10 12 27 4 17 -10 19 -9 14 5 -3 8 -1 18 5 22 7 5 8 2 3 -6 -6 -10 -3
-12 13 -8 16 4 19 2 16 -11 -4 -10 0 -8 8 4 9 14 25 21 51 22 21 1 44 6 51 12
9 7 16 7 23 0 7 -7 15 -5 26 5 11 11 18 13 23 5 4 -7 9 -7 13 -2 3 6 19 13 34
17 22 5 27 4 22 -6 -4 -7 0 -5 8 4 8 10 17 15 20 11 4 -3 7 -1 7 7 0 10 3 10
14 1 10 -9 16 -9 21 -1 4 6 13 9 21 6 9 -3 14 1 15 12 0 10 3 12 6 5 3 -9 10
-10 23 -3 14 8 20 6 23 -8 4 -16 5 -16 6 1 0 10 6 15 11 12 6 -4 8 -12 4 -18
-3 -7 2 -3 10 7 10 13 16 15 16 7 0 -11 3 -11 15 -1 12 10 15 10 15 -1 0 -12
2 -12 9 0 5 8 10 9 12 2 4 -12 129 -20 129 -9 0 5 5 8 11 8 5 0 7 -6 4 -12 -4
-7 0 -5 8 4 17 22 32 11 15 -11 -10 -13 -9 -13 7 1 15 12 25 14 38 7 13 -8 17
-6 17 6 0 9 5 13 10 10 6 -4 8 -11 5 -16 -3 -5 2 -6 11 -2 10 4 15 2 11 -3 -7
-12 34 -11 53 1 9 5 11 4 6 -3 -5 -8 3 -12 23 -12 17 0 31 -5 31 -11 0 -6 7
-3 16 5 20 20 30 21 14 1 -15 -18 1 -20 19 -2 10 10 12 9 9 -3 -2 -8 3 -14 10
-12 6 1 12 -3 12 -9 0 -5 4 -8 8 -5 4 2 14 1 22 -4 8 -5 22 -5 32 1 14 8 18 6
18 -8 0 -15 2 -16 10 -3 8 13 14 8 12 -10 0 -3 8 -6 18 -6 10 0 17 4 14 7 -2
4 1 11 7 15 8 4 9 3 5 -4 -6 -11 12 -17 37 -13 4 0 7 -3 7 -9 0 -5 7 -10 15
-10 8 0 15 -6 15 -12 0 -9 4 -8 10 2 9 13 10 13 10 0 0 -13 1 -13 10 0 9 13
10 13 10 0 0 -12 2 -13 9 -1 7 11 10 9 16 -9 5 -16 10 -19 18 -11 8 8 16 3 30
-17 10 -15 17 -20 14 -11 -4 13 -1 15 14 12 10 -3 19 -9 19 -14 0 -5 10 -9 23
-9 18 0 19 -2 7 -10 -13 -8 -13 -10 2 -10 9 0 19 6 21 13 3 7 6 5 6 -5 1 -10
6 -18 12 -18 5 0 7 6 3 13 -4 6 3 3 15 -8 13 -11 25 -19 27 -17 2 1 4 -1 5 -5
2 -18 21 -31 39 -26 11 3 20 0 20 -6 0 -6 7 -11 15 -11 9 0 18 -7 22 -16 3 -8
11 -13 19 -10 8 3 11 -2 9 -15 -3 -17 0 -21 22 -18 4 0 10 -9 15 -20 4 -12 15
-21 23 -21 9 0 13 -4 10 -10 -3 -5 1 -10 9 -10 9 0 21 -9 28 -20 7 -11 21 -20
30 -20 10 0 18 -5 18 -11 0 -17 54 -79 70 -79 13 0 13 -1 0 -10 -10 -6 -11
-10 -2 -10 6 0 12 -5 12 -11 0 -17 24 -36 43 -33 15 2 16 0 6 -12 -10 -12 -10
-15 2 -12 8 2 13 -3 11 -9 -1 -7 2 -13 8 -13 5 0 10 -7 10 -15 0 -8 5 -15 11
-15 6 0 8 -7 5 -16 -6 -14 -4 -15 9 -4 9 7 15 9 14 4 -3 -19 2 -33 17 -48 12
-12 12 -16 2 -16 -7 0 -2 -6 12 -13 14 -7 26 -21 28 -32 2 -11 10 -27 18 -36
8 -9 11 -19 7 -22 -3 -4 -1 -7 5 -7 7 0 12 -5 12 -11 0 -5 -5 -7 -12 -3 -7 5
-8 3 -4 -5 5 -7 14 -10 20 -8 7 3 13 -1 13 -9 0 -7 -5 -10 -11 -7 -6 3 -5 0 2
-8 15 -16 16 -33 0 -23 -7 4 -8 3 -4 -5 4 -6 11 -9 16 -6 4 3 10 -2 14 -10 3
-8 0 -17 -6 -21 -6 -4 -2 -12 13 -20 13 -7 18 -13 12 -14 -7 0 -13 -7 -13 -15
0 -17 -25 -20 -35 -5 -4 6 -12 7 -18 3 -7 -4 -6 1 2 10 12 15 12 17 -3 11 -9
-3 -16 -10 -16 -15 0 -5 -5 -9 -11 -9 -5 0 -7 5 -3 11 5 8 1 8 -14 0 -16 -9
-24 -8 -36 5 -13 12 -16 13 -16 1 0 -7 -6 -14 -14 -14 -8 0 -12 7 -9 16 4 11
1 10 -9 -3 -15 -19 -58 -30 -58 -15 0 3 -11 9 -24 11 -16 3 -23 1 -20 -7 3 -8
-4 -12 -18 -11 -13 1 -29 -5 -36 -14 -12 -13 -12 -13 -6 0 7 13 5 13 -9 1 -9
-7 -17 -10 -17 -6 0 4 -7 2 -16 -5 -8 -8 -14 -9 -13 -4 4 23 -2 26 -17 8 -8
-10 -13 -13 -9 -6 3 6 1 12 -4 12 -6 0 -11 -5 -11 -11 0 -6 -7 -8 -16 -5 -14
5 -15 4 -5 -8 11 -13 8 -14 -14 -10 -21 4 -26 2 -22 -10 4 -11 1 -13 -10 -9
-12 5 -14 3 -8 -8 7 -11 5 -11 -10 1 -10 8 -16 10 -12 4 4 -7 0 -15 -9 -18 -8
-3 -12 -11 -8 -17 4 -8 3 -9 -4 -5 -6 4 -20 -2 -32 -14 -11 -11 -23 -20 -26
-20 -8 0 -39 -32 -40 -42 -1 -4 -2 -15 -3 -24 0 -8 -5 -12 -11 -9 -9 6 -14 -8
-11 -27 0 -5 -3 -8 -8 -8 -10 0 -9 -25 1 -36 11 -10 -3 -34 -21 -35 -11 0 -12
-2 -3 -6 10 -4 10 -8 0 -21 -7 -9 -8 -13 -2 -9 6 3 11 0 11 -8 0 -8 -3 -12 -7
-10 -4 2 -7 -16 -7 -40 -1 -31 3 -43 11 -38 6 4 4 -2 -4 -12 -9 -11 -10 -16
-2 -11 7 4 12 1 12 -9 0 -9 -4 -13 -10 -10 -16 10 -12 -2 8 -21 16 -17 16 -18
0 -11 -10 3 -18 2 -18 -3 0 -6 -5 -10 -11 -10 -5 0 -7 6 -3 13 5 9 4 9 -6 0
-10 -9 -16 -8 -27 3 -16 15 -38 19 -29 5 3 -5 -1 -12 -10 -15 -10 -4 -13 -2
-8 7 5 9 4 9 -6 0 -10 -9 -16 -8 -27 3 -12 12 -18 12 -31 2 -12 -10 -14 -10
-8 0 4 6 2 12 -3 12 -6 0 -11 -6 -11 -12 0 -10 -2 -10 -9 0 -6 11 -10 10 -15
-3 -4 -12 -10 -14 -19 -7 -14 11 -41 -10 -29 -23 4 -4 -4 -2 -18 5 -22 12 -24
12 -12 -2 13 -16 2 -34 -12 -21 -10 11 -37 12 -30 2 3 -5 0 -9 -6 -9 -6 0 -8
-4 -5 -10 4 -6 -1 -7 -11 -3 -12 4 -15 3 -10 -5 4 -8 0 -12 -11 -12 -14 0 -15
-2 -5 -9 10 -6 8 -10 -8 -14 -12 -3 -19 -10 -15 -16 3 -6 1 -12 -4 -12 -6 -1
-17 -2 -23 -3 -7 -1 -12 -10 -10 -20 2 -12 -1 -16 -9 -10 -9 5 -10 2 -6 -9 3
-9 0 -23 -8 -31 -8 -7 -11 -17 -7 -20 3 -4 -1 -4 -10 -1 -9 4 -19 1 -24 -6 -5
-8 -3 -10 7 -5 8 4 6 1 -5 -8 -10 -8 -15 -19 -12 -25 3 -5 1 -15 -6 -23 -7 -7
-13 -19 -14 -25 -2 -30 -5 -34 -16 -27 -8 5 -9 2 -5 -9 3 -10 3 -17 -2 -17 -5
0 -11 -9 -14 -20 -3 -11 -2 -18 2 -15 4 2 8 -2 8 -10 0 -8 -4 -12 -8 -9 -4 2
-10 0 -14 -6 -3 -5 -1 -10 6 -10 8 0 8 -4 -1 -15 -10 -12 -10 -15 0 -15 9 0 9
-4 -1 -17 -12 -15 -12 -16 4 -10 14 5 16 3 9 -11 -11 -21 -4 -45 10 -36 7 5 8
2 2 -7 -13 -21 -12 -58 3 -63 7 -3 10 -12 6 -22 -4 -12 -3 -15 5 -10 8 5 12 0
12 -14 0 -14 4 -19 13 -14 7 5 6 0 -3 -11 -9 -11 -10 -16 -2 -11 7 4 12 1 12
-8 0 -8 9 -20 20 -26 11 -6 20 -20 20 -31 0 -11 5 -17 10 -14 6 3 10 -1 10 -9
0 -9 5 -16 10 -16 6 0 10 -5 10 -11 0 -13 38 -49 53 -49 5 0 4 -7 -3 -16 -8
-8 -9 -14 -4 -13 19 3 35 -1 30 -10 -3 -4 6 -7 19 -5 14 1 28 -3 32 -8 3 -7 1
-8 -5 -4 -18 11 -14 0 5 -15 10 -8 14 -9 10 -2 -4 6 -3 14 3 18 6 3 13 -1 16
-9 3 -9 10 -13 15 -10 5 3 9 0 9 -6 0 -7 17 -10 46 -9 29 2 48 -2 54 -10 4 -8
12 -11 17 -8 5 3 22 0 37 -8 14 -8 24 -10 21 -5 -4 6 7 8 25 6 25 -3 30 -1 25
13 -5 13 -4 14 6 4 17 -17 43 -17 33 0 -5 7 0 6 11 -3 10 -8 16 -10 12 -3 -5
8 0 11 13 10 21 -1 27 -21 10 -32 -13 -8 -13 -25 1 -25 5 0 7 5 3 12 -5 7 -3
8 5 4 9 -6 8 -12 -4 -26 -10 -11 -12 -20 -7 -24 15 -9 7 -41 -9 -38 -9 1 -7
-3 4 -12 17 -13 17 -14 0 -21 -12 -5 -14 -9 -5 -12 6 -3 12 -9 12 -14 0 -6 -5
-7 -11 -3 -8 5 -8 1 0 -13 6 -11 7 -23 4 -27 -3 -3 -1 -6 5 -6 7 0 12 -7 12
-16 0 -9 5 -12 13 -8 6 4 9 4 5 -1 -4 -4 -2 -15 5 -23 10 -13 9 -14 -3 -7 -9
5 -7 -1 5 -15 11 -13 14 -20 6 -15 -9 5 -12 3 -9 -6 3 -8 10 -13 16 -12 5 1
13 -4 16 -13 4 -10 1 -13 -7 -9 -6 4 -1 -3 13 -15 14 -12 19 -19 13 -15 -9 4
-11 1 -7 -10 4 -9 13 -14 21 -11 9 4 11 2 7 -6 -5 -8 -2 -9 10 -5 9 4 15 3 12
-2 -7 -11 28 -51 44 -51 7 0 21 -9 31 -21 10 -12 30 -21 49 -21 18 -1 34 -7
37 -14 3 -8 9 -11 14 -8 5 3 9 0 9 -6 0 -6 5 -8 10 -5 6 3 10 -2 11 -12 0 -13
2 -14 6 -4 4 10 9 8 19 -10 10 -19 13 -20 14 -6 0 9 5 17 11 17 5 0 7 -4 4
-10 -3 -6 1 -7 9 -4 9 3 16 2 16 -2 0 -5 16 -10 36 -12 19 -1 42 -9 50 -17 20
-20 25 -19 17 3 -6 14 -4 15 8 5 12 -10 18 -10 29 0 10 9 11 9 6 0 -4 -7 -3
-13 3 -13 5 0 12 6 14 13 4 9 8 9 15 -2 8 -11 10 -11 15 0 4 10 6 10 6 2 1
-17 28 -17 34 0 4 9 6 9 6 0 1 -7 6 -13 12 -13 5 0 7 4 4 10 -3 5 -1 11 4 11
26 3 30 4 37 12 4 4 1 7 -6 7 -7 0 -10 3 -7 7 4 3 16 -2 27 -12 20 -18 21 -18
14 0 -5 12 -4 16 4 11 6 -3 13 -2 17 4 4 6 11 8 16 5 5 -4 9 2 9 12 0 15 2 16
10 3 6 -10 10 -11 10 -2 0 6 5 12 11 12 5 0 7 -6 3 -12 -4 -7 1 -6 12 3 10 9
25 14 32 12 6 -3 12 1 12 9 0 7 9 21 20 31 23 20 34 22 24 5 -4 -7 -3 -8 4 -4
7 4 12 14 12 23 0 12 3 13 14 3 8 -6 13 -17 10 -24 -3 -8 2 -16 10 -19 9 -4
16 -12 16 -19 0 -9 -3 -8 -10 2 -5 8 -10 10 -10 4 0 -6 7 -17 15 -24 8 -7 12
-16 9 -21 -3 -5 0 -9 6 -9 6 0 8 -4 5 -10 -3 -5 -2 -10 4 -10 14 0 60 -47 53
-54 -3 -3 1 -6 8 -6 7 0 11 -3 7 -6 -8 -8 18 -34 35 -34 10 0 9 -3 -2 -10 -13
-8 -12 -10 3 -10 9 0 17 -4 17 -10 0 -5 7 -10 15 -10 9 0 15 -9 15 -22 0 -19
2 -20 10 -8 8 13 10 13 10 -2 0 -9 5 -20 12 -24 6 -4 8 -3 5 4 -12 19 37 0 56
-22 10 -11 16 -15 12 -9 -3 7 -2 13 3 13 5 0 12 -10 15 -22 5 -17 9 -19 21 -9
11 9 15 9 19 -1 4 -9 6 -9 6 -1 1 8 10 9 31 3 19 -5 30 -5 30 1 0 6 5 7 12 3
17 -10 168 -11 168 0 0 5 6 3 14 -3 10 -8 16 -9 21 -1 3 6 12 7 18 3 7 -4 5 2
-3 12 -10 12 -11 16 -2 11 18 -11 62 2 59 17 -1 6 5 12 13 12 8 0 21 7 28 15
12 13 13 13 7 0 -4 -10 -2 -9 8 2 8 10 16 17 18 15 2 -1 1 2 -2 7 -4 4 2 17
12 27 11 11 17 24 14 28 -2 5 2 12 11 15 8 3 12 10 9 16 -3 6 1 13 10 16 13 6
14 8 3 15 -10 7 -11 9 0 9 7 0 10 4 7 10 -3 6 1 7 10 4 11 -5 14 -2 9 10 -3 9
-1 16 6 16 6 0 9 4 6 9 -10 15 22 6 42 -13 11 -9 29 -18 41 -19 13 -1 20 -6
17 -14 -3 -7 -1 -13 4 -13 6 0 10 5 10 11 0 8 4 9 13 0 8 -6 17 -8 20 -4 4 3
7 1 7 -5 0 -7 5 -12 11 -12 5 0 7 5 3 12 -4 7 -3 8 5 4 6 -4 9 -11 6 -16 -3
-5 -1 -11 5 -15 5 -3 10 0 10 7 0 10 2 10 9 -1 5 -7 14 -10 20 -7 6 4 11 0 11
-8 0 -18 16 -21 25 -6 6 10 40 9 51 -3 4 -3 15 -2 24 3 20 11 46 -10 32 -26
-4 -4 0 -3 10 4 13 10 17 10 21 0 4 -8 6 -7 6 4 1 12 6 15 18 11 10 -4 14 -2
10 4 -5 7 1 9 15 5 14 -3 19 -2 14 6 -4 7 -2 12 3 12 6 0 11 -6 12 -12 0 -7 4
-4 9 7 5 11 9 14 9 6 1 -11 4 -11 16 -1 12 10 15 10 16 -1 0 -8 5 -3 10 10 8
20 11 22 26 10 14 -12 16 -12 8 0 -6 11 -4 13 8 8 10 -4 17 -1 17 5 0 6 3 8 7
5 3 -4 13 -1 21 6 13 10 14 9 7 -2 -6 -10 -4 -12 4 -7 7 5 10 14 8 20 -4 9 3
11 20 8 19 -4 24 -2 18 8 -6 9 -2 10 15 5 19 -6 22 -4 17 9 -4 9 -2 16 4 16 6
0 7 6 3 13 -5 7 0 6 11 -3 11 -9 16 -10 11 -2 -4 7 -1 15 8 18 9 3 16 11 16
18 0 6 14 25 32 41 18 17 28 24 23 16 -5 -9 -4 -12 3 -7 6 4 9 13 6 20 -3 7 3
16 13 20 15 6 15 8 3 16 -11 7 -12 10 -2 10 7 0 10 5 7 10 -3 6 1 13 9 16 9 3
13 10 10 15 -3 5 0 9 6 9 6 0 9 4 6 9 -9 14 5 42 18 35 6 -3 2 1 -8 10 -15 12
-17 18 -7 30 9 11 9 15 -1 19 -10 4 -10 6 0 6 6 1 12 8 12 17 0 9 5 12 13 8 8
-5 8 -2 -2 9 -10 13 -10 17 -1 17 7 0 10 6 7 14 -4 10 4 13 29 13 21 -1 33 -6
30 -12 -2 -7 2 -12 10 -12 8 0 14 5 14 11 0 6 5 4 10 -4 6 -11 20 -15 49 -12
23 2 41 8 41 12 0 4 18 6 40 5 22 -2 38 0 35 4 -2 4 2 8 10 8 8 0 12 -4 9 -9
-3 -4 -1 -8 5 -8 5 0 15 8 20 18 6 10 11 12 11 4 0 -7 5 -10 10 -7 6 4 7 11 4
17 -4 7 -2 8 5 4 6 -4 19 -2 28 6 14 11 16 11 9 -2 -4 -9 -2 -8 7 2 8 10 17
15 20 11 4 -3 14 0 24 8 11 9 14 10 9 2 -4 -7 -3 -13 2 -13 5 0 12 9 15 20 3
11 11 19 19 18 7 -2 12 5 12 14 -1 14 2 15 17 8 12 -7 20 -6 25 2 5 7 3 8 -6
3 -9 -5 -11 -4 -6 4 6 9 11 9 24 -1 13 -11 15 -10 9 5 -6 15 -4 16 14 6 13 -7
19 -7 15 -1 -3 6 4 18 16 26 15 11 18 16 8 16 -12 1 -11 3 3 14 9 7 17 19 17
25 0 7 5 9 11 6 6 -4 13 3 16 15 4 16 8 18 14 8 7 -10 9 -9 9 5 0 9 9 26 20
37 11 11 20 31 20 44 0 13 8 27 17 30 12 5 13 10 5 18 -8 8 -7 15 4 26 8 8 13
21 10 28 -3 8 0 14 6 14 6 0 3 9 -8 21 -19 21 -18 21 3 39 17 13 19 20 10 29
-9 9 -8 11 4 6 12 -4 15 0 13 17 -1 13 -3 27 -3 31 -1 5 -7 5 -13 2 -7 -4 -2
4 12 16 15 13 18 20 8 16 -9 -3 -22 1 -29 9 -10 12 -9 13 4 9 8 -4 18 -1 23 6
4 7 3 10 -3 6 -18 -11 -38 20 -24 37 9 11 9 16 0 22 -8 5 -9 3 -4 -6 5 -9 4
-11 -4 -6 -9 6 -9 11 0 22 9 11 9 14 -1 14 -9 0 -9 4 1 17 10 11 10 14 2 9 -8
-4 -13 -1 -13 8 0 9 -4 16 -8 16 -4 0 -9 10 -9 22 -1 13 -7 24 -13 26 -5 2 -8
8 -5 13 4 5 -5 20 -18 33 -14 14 -22 28 -19 31 4 3 -1 3 -11 -1 -12 -4 -17 -1
-17 12 0 16 -2 17 -10 4 -9 -14 -14 -7 -11 13 1 5 -3 6 -9 2 -5 -3 -10 -1 -10
6 0 8 -4 8 -15 -1 -10 -9 -15 -9 -15 -1 0 6 -7 11 -16 11 -22 0 -12 23 17 37
13 7 20 13 15 13 -4 0 2 9 15 21 13 11 18 17 10 13 -9 -5 -12 -3 -7 4 4 7 14
12 21 12 9 0 12 6 8 15 -3 9 -2 15 3 14 21 -4 26 2 14 16 -11 13 -10 14 3 9
12 -4 15 -1 12 15 -2 12 -7 26 -11 33 -4 6 -3 8 3 5 14 -9 24 18 12 30 -13 13
0 45 15 36 6 -3 6 -1 -1 8 -7 7 -13 17 -13 22 0 4 6 5 13 1 9 -6 9 -4 -1 8 -7
8 -10 23 -6 32 4 9 1 16 -6 16 -9 0 -9 4 -2 13 8 9 5 19 -8 37 -14 19 -16 29
-8 45 6 11 7 17 3 13 -12 -11 -40 33 -37 56 2 11 -1 16 -7 12 -6 -4 -11 0 -11
8 0 9 -6 16 -12 16 -9 0 -8 4 2 10 13 8 12 10 -3 10 -10 0 -15 5 -12 10 3 6
-1 10 -10 10 -8 0 -18 7 -22 16 -3 8 -12 13 -20 10 -8 -3 -11 -1 -8 4 3 6 0
10 -7 10 -8 0 -21 8 -30 18 -27 28 -48 43 -48 34 0 -16 -30 -9 -31 7 0 12 -3
11 -9 -4 -6 -14 -9 -15 -10 -5 -1 10 -4 9 -10 -5 -6 -15 -9 -16 -9 -4 -1 16
-34 20 -47 6 -12 -12 -26 -8 -18 6 5 7 0 6 -11 -3 -14 -12 -19 -12 -23 -2 -3
10 -8 8 -19 -5 -8 -10 -12 -13 -9 -7 3 7 -1 15 -10 18 -12 4 -15 2 -10 -9 3
-8 2 -14 -2 -13 -4 1 -17 -3 -28 -10 -12 -6 -24 -8 -28 -5 -3 3 -6 0 -6 -8 0
-8 -11 -15 -24 -15 -18 -1 -23 2 -19 14 5 11 2 14 -8 10 -10 -4 -15 1 -15 12
0 11 5 16 15 12 10 -4 13 -1 8 11 -6 15 -4 16 15 6 17 -9 20 -9 15 4 -4 11 0
13 14 10 15 -4 18 -2 13 11 -4 11 -1 16 11 16 17 0 17 2 -1 22 -10 12 -14 18
-7 15 6 -4 15 -2 19 4 4 7 3 9 -3 6 -6 -4 -21 5 -34 20 -13 14 -18 23 -12 19
9 -5 11 -2 7 8 -3 9 -11 13 -18 9 -6 -4 -6 0 2 9 9 11 10 18 2 23 -5 3 -10 15
-10 26 0 10 -6 19 -12 19 -9 1 -8 4 2 13 19 15 14 76 -6 84 -12 4 -12 8 3 19
16 12 16 12 -7 7 -22 -6 -24 -5 -11 10 11 14 11 18 -2 23 -9 3 -13 12 -10 20
3 8 9 11 15 8 5 -3 4 3 -3 14 -7 12 -16 19 -19 17 -3 -2 -6 11 -5 28 0 18 -8
40 -19 51 -13 13 -15 21 -7 25 8 5 5 13 -8 25 -11 10 -18 26 -16 37 2 10 -1
19 -6 19 -6 0 -8 4 -4 9 3 5 -1 16 -9 24 -8 8 -13 17 -10 20 3 3 -4 10 -15 17
-12 6 -21 16 -21 23 0 8 4 7 11 -3 9 -12 10 -12 5 3 -3 10 -6 21 -6 23 0 2 -7
4 -16 4 -11 0 -15 6 -11 20 3 11 2 20 -2 20 -4 0 -13 12 -20 27 -11 25 -11 25
6 13 10 -8 6 -1 -9 16 -23 24 -26 33 -15 43 9 11 9 13 0 7 -8 -5 -13 -1 -13 9
0 9 -3 14 -7 12 -5 -2 -18 6 -31 19 -12 13 -20 24 -16 24 3 0 0 8 -7 17 -9 11
-10 14 -2 9 9 -5 11 -2 7 8 -3 9 -11 13 -17 9 -6 -4 -8 2 -5 15 4 12 3 20 0
18 -10 -6 -32 21 -24 29 4 4 2 6 -3 5 -27 -6 -37 0 -26 14 10 11 8 16 -8 21
-12 4 -21 15 -21 26 0 13 -4 18 -12 13 -8 -5 -9 -2 -4 11 5 15 4 16 -9 5 -12
-10 -15 -9 -15 6 -1 25 -25 56 -36 46 -4 -4 -2 1 6 11 11 16 11 18 -1 15 -9
-2 -13 4 -11 15 2 9 -1 16 -5 15 -5 -2 -20 8 -33 21 -14 13 -19 21 -12 16 11
-6 11 -3 1 13 -7 12 -15 20 -18 20 -21 -2 -28 5 -26 27 3 24 -9 31 -39 26 -5
-1 -4 5 3 13 11 13 9 15 -9 11 -13 -2 -20 -2 -17 2 3 3 1 11 -6 19 -30 33 -35
42 -30 48 4 3 -1 6 -11 6 -9 0 -14 5 -11 10 3 6 -1 10 -9 10 -9 0 -16 5 -16
11 0 5 -4 7 -10 4 -6 -3 -7 1 -4 9 3 9 1 16 -6 16 -6 0 -9 4 -6 8 3 5 -4 14
-14 22 -10 8 -17 17 -14 22 3 5 0 7 -8 6 -7 -2 -12 3 -10 10 1 8 -2 11 -7 8
-5 -4 -21 5 -36 18 -18 17 -22 26 -13 29 7 3 3 6 -8 6 -14 1 -26 11 -34 30 -8
21 -17 28 -28 24 -11 -5 -14 -2 -9 10 4 11 2 14 -9 10 -8 -3 -25 6 -38 20 -13
14 -28 23 -32 19 -5 -4 -3 1 4 10 11 14 10 18 -7 28 -12 6 -21 8 -21 5 0 -3
-6 0 -14 7 -8 7 -12 16 -10 19 2 4 -4 6 -14 5 -9 0 -16 5 -14 12 1 6 -5 12
-14 12 -8 0 -12 5 -9 10 3 6 -1 10 -10 10 -9 0 -14 4 -11 8 3 5 -7 15 -22 23
-15 8 -35 22 -44 33 -11 11 -24 16 -34 12 -15 -6 -15 -4 -3 11 8 9 9 14 2 10
-6 -4 -18 -1 -26 7 -8 8 -17 12 -21 9 -3 -4 -6 1 -6 10 0 9 -7 17 -16 17 -8 0
-12 5 -9 10 3 6 -1 10 -10 10 -8 0 -18 6 -21 14 -5 13 -40 30 -57 27 -5 -1 -6
3 -2 9 3 6 12 8 18 4 13 -6 -9 13 -42 35 -11 8 -18 18 -15 23 3 4 -2 8 -10 8
-9 0 -16 7 -16 16 0 8 -4 12 -10 9 -5 -3 -10 -1 -10 5 0 7 -7 10 -15 7 -8 -4
-17 -1 -21 5 -4 7 -3 8 4 4 7 -4 12 -2 12 3 0 6 -6 11 -14 11 -8 0 -16 3 -19
8 -2 4 -2 1 0 -7 3 -11 -3 -9 -19 5 -13 10 -26 24 -30 29 -5 6 -8 5 -8 -3 0
-10 -4 -9 -16 3 -9 9 -23 14 -31 11 -8 -3 -12 -2 -9 2 3 4 -4 14 -16 21 -16
10 -19 10 -13 -1 3 -7 -3 -2 -14 11 -12 13 -27 21 -35 18 -10 -4 -12 1 -9 16
4 17 3 19 -6 7 -9 -12 -11 -12 -17 3 -3 9 -10 15 -14 12 -4 -3 -10 2 -14 10
-3 8 -12 15 -21 15 -8 0 -15 5 -15 11 0 8 -5 7 -15 -1 -13 -11 -14 -10 -9 5 5
13 4 16 -4 11 -7 -4 -12 -2 -12 4 0 6 -5 8 -10 5 -6 -4 -10 -3 -9 2 3 18 -3
47 -8 36 -2 -7 -9 -13 -14 -13 -6 0 -8 4 -5 9 7 11 -22 23 -36 14 -7 -3 -8 -1
-4 5 4 7 1 12 -9 12 -9 0 -13 5 -10 10 4 6 -5 10 -20 10 -15 0 -24 4 -20 10 4
6 -1 7 -11 3 -10 -4 -22 0 -30 11 -7 11 -18 15 -25 10 -8 -4 -10 -3 -5 4 4 7
2 12 -3 12 -6 0 -11 8 -12 18 0 15 -1 15 -8 -2 -5 -14 -10 -16 -15 -8 -4 7
-13 9 -19 5 -8 -5 -8 -2 1 9 10 13 9 15 -10 14 -14 -1 -22 4 -20 12 1 8 -2 11
-8 7 -5 -3 -10 -1 -10 5 0 6 -4 9 -9 5 -5 -3 -17 2 -25 11 -9 8 -16 12 -16 7
0 -4 -5 0 -11 9 -5 10 -20 23 -32 28 -21 11 -21 11 -3 -4 11 -9 16 -16 10 -16
-5 0 -22 11 -37 25 -15 14 -27 21 -27 15 0 -5 -5 -10 -11 -10 -5 0 -7 5 -3 12
5 7 2 9 -8 6 -8 -4 -27 4 -43 18 -33 28 -43 31 -24 7 7 -10 2 -8 -12 5 -14 12
-29 19 -32 15 -4 -3 -7 -1 -7 7 0 10 -3 10 -15 0 -10 -9 -15 -9 -15 -1 0 6 -6
10 -12 8 -7 -1 -12 3 -11 10 2 7 -4 10 -13 6 -9 -3 -20 0 -24 7 -5 8 -17 14
-27 16 -10 1 -27 5 -37 9 -15 7 -18 5 -12 -6 4 -8 0 -5 -8 5 -12 15 -16 16
-16 5 0 -12 -2 -12 -9 0 -7 11 -9 11 -14 0 -4 -10 -6 -10 -6 -1 -1 6 -13 12
-28 12 -22 0 -25 2 -13 10 12 8 9 10 -12 10 -16 0 -30 -1 -31 -2 -2 -2 -10 2
-18 8 -12 9 -33 11 -41 4 -10 -7 -37 -7 -32 1 3 5 0 9 -6 9 -6 0 -8 5 -4 12 4
7 3 8 -5 4 -6 -4 -8 -13 -4 -19 4 -7 0 -7 -10 1 -9 8 -21 11 -27 7 -5 -3 -10
-2 -10 2 0 5 -9 9 -19 9 -11 0 -17 -4 -15 -8 3 -4 0 -8 -5 -8 -6 0 -11 4 -11
9 0 6 -9 8 -20 6 -11 -2 -23 1 -26 7 -4 7 -2 8 4 4 7 -4 12 -5 12 -2 0 3 -9
10 -19 16 -15 7 -23 6 -35 -6 -9 -8 -16 -11 -16 -5 0 7 -16 10 -40 8 -22 -2
-40 1 -40 6 0 5 -7 6 -16 3 -8 -3 -13 -2 -10 3 3 5 -1 12 -10 15 -9 3 -12 2
-9 -4 4 -7 -4 -9 -21 -6 -15 3 -31 11 -36 18 -5 9 -8 7 -8 -7 0 -16 -2 -17 -9
-5 -6 8 -7 19 -4 25 4 5 -3 1 -15 -9 -22 -19 -22 -19 -23 0 0 18 -1 18 -9 -1
-5 -11 -9 -14 -9 -7 -1 13 -37 17 -44 5 -2 -5 -3 -3 -1 4 4 18 -6 22 -36 13
-20 -6 -32 -4 -44 8 -9 9 -16 11 -16 6 0 -6 -11 -9 -24 -7 -13 3 -27 0 -30 -6
-4 -6 -13 -11 -19 -11 -7 0 -6 4 3 11 12 9 11 10 -7 6 -16 -4 -20 -1 -16 10 5
13 2 13 -16 4 -17 -10 -22 -9 -27 4 -3 8 -10 12 -15 9 -5 -3 -6 -10 -3 -16 4
-7 2 -8 -5 -4 -6 4 -9 12 -6 17 4 5 -6 9 -20 9 -18 0 -24 -4 -19 -12 5 -9 2
-9 -9 1 -15 11 -17 11 -17 -1 0 -20 -30 -19 -30 1 -1 13 -2 13 -11 -2 -10 -18
-11 -18 -26 0 -8 10 -12 12 -8 6 5 -10 0 -11 -18 -4 -14 6 -28 7 -32 3 -3 -3
-10 0 -15 8 -8 12 -10 11 -11 -5z m-3715 -4781 c3 -8 2 -12 -4 -9 -6 3 -10 10
-10 16 0 14 7 11 14 -7z m1827 -207 c-10 -9 -11 -8 -5 6 3 10 9 15 12 12 3 -3
0 -11 -7 -18z m5064 -146 c3 -5 2 -12 -3 -15 -5 -3 -9 1 -9 9 0 17 3 19 12 6z"/>
<path d="M3656 7453 c-6 -14 -5 -15 5 -6 7 7 10 15 7 18 -3 3 -9 -2 -12 -12z"/>
<path d="M9664 3489 c-3 -6 -1 -15 5 -20 6 -5 9 -6 6 -3 -3 4 0 13 6 21 8 9 8
13 1 13 -6 0 -14 -5 -18 -11z"/>
<path d="M3974 3084 c-18 -14 -18 -15 4 -4 12 6 22 13 22 15 0 8 -5 6 -26 -11z"/>
</g>
</svg>
